<svg width="20" height="20" viewBox="0 0 20 20" fill="none" xmlns="http://www.w3.org/2000/svg">
<path d="M15.6 7.2C17.5882 7.2 19.2 5.58822 19.2 3.6C19.2 1.61177 17.5882 0 15.6 0C13.6118 0 12 1.61177 12 3.6C12 3.75058 12.0092 3.899 12.0272 4.04473L6.09911 7.00877C5.45164 6.38418 4.57068 6 3.6 6C1.61177 6 0 7.61177 0 9.6C0 11.5882 1.61177 13.2 3.6 13.2C4.5707 13.2 5.45168 12.8158 6.09915 12.1912L12.0272 15.1552C12.0092 15.301 12 15.4494 12 15.6C12 17.5882 13.6118 19.2 15.6 19.2C17.5882 19.2 19.2 17.5882 19.2 15.6C19.2 13.6118 17.5882 12 15.6 12C14.6293 12 13.7484 12.3842 13.1009 13.0088L7.1728 10.0447C7.19075 9.899 7.2 9.75058 7.2 9.6C7.2 9.4494 7.19075 9.30096 7.17279 9.15521L13.1008 6.19119C13.7483 6.81581 14.6293 7.2 15.6 7.2Z" fill="#E6334C"/>
</svg>
